<svg xmlns="http://www.w3.org/2000/svg" xmlns:xlink="http://www.w3.org/1999/xlink" viewBox="0 0 100 125" version="1.1" x="0px" y="0px"><title>Delete 13.3</title><desc>Created with Sketch.</desc><g stroke="none" stroke-width="1" fill="none" fill-rule="evenodd"><g fill="#000000"><path d="M50,67 C40.6111593,67 33,59.3888407 33,50 C33,40.6111593 40.6111593,33 50,33 C59.3888407,33 67,40.6111593 67,50 C67,59.3888407 59.3888407,67 50,67 Z M52.1213203,50 L57.0606602,45.0606602 C57.6464466,44.4748737 57.6464466,43.5251263 57.0606602,42.9393398 C56.4748737,42.3535534 55.5251263,42.3535534 54.9393398,42.9393398 L50,47.8786797 L45.0606602,42.9393398 C44.4748737,42.3535534 43.5251263,42.3535534 42.9393398,42.9393398 C42.3535534,43.5251263 42.3535534,44.4748737 42.9393398,45.0606602 L47.8786797,50 L42.9393398,54.9393398 C42.3535534,55.5251263 42.3535534,56.4748737 42.9393398,57.0606602 C43.5251263,57.6464466 44.4748737,57.6464466 45.0606602,57.0606602 L50,52.1213203 L54.9393398,57.0606602 C55.5251263,57.6464466 56.4748737,57.6464466 57.0606602,57.0606602 C57.6464466,56.4748737 57.6464466,55.5251263 57.0606602,54.9393398 L52.1213203,50 Z"/></g></g><text x="0" y="115" fill="#000000" font-size="5px" font-weight="bold" font-family="'Helvetica Neue', Helvetica, Arial-Unicode, Arial, Sans-serif">Created by Landan Lloyd</text><text x="0" y="120" fill="#000000" font-size="5px" font-weight="bold" font-family="'Helvetica Neue', Helvetica, Arial-Unicode, Arial, Sans-serif">from the Noun Project</text></svg>