<?xml version="1.0" encoding="utf-8"?>
<!-- Generator: Adobe Illustrator 25.0.1, SVG Export Plug-In . SVG Version: 6.00 Build 0)  -->
<svg version="1.1" id="Layer_1" xmlns="http://www.w3.org/2000/svg" xmlns:xlink="http://www.w3.org/1999/xlink" x="0px" y="0px"
	 viewBox="0 0 91 113.8" style="enable-background:new 0 0 91 113.8;" xml:space="preserve">
	<path class="st0" d="M88.4,63.8c0,0-8.7-7.1-12.9-10.6c-3.3-2.7-8,2.1-4.7,4.7c1.9,1.5,3.7,2.9,5.6,4.4c-6-0.3-12.1-0.6-18.1-1
		c-2.1-0.1-4.2,0.2-5.7-1.6c-1.2-1.4-14.6-24.2-17-27.8c-1.9-2.9-3.8-7.1-7-8.9c-3.3-1.8-8.2-1.1-11.8-1c-4.5,0.1-9.6,0.3-13.9,1.7
		c-2.3,0.7-1.7,3.8,0.6,4.1c4.4,0.5,9,0.1,13.4,0.2c2.3,0,5.2-0.2,7.5,0.4c2.2,0.6,10.9,14.7,14.1,19.8c-0.5,0.1-0.9,0.4-1.3,0.8
		c-2.3,2.8-4.4,5.8-6.5,8.7c-1.1,1.4-4.2,6-4.9,6.6c-1,0.9-1.1,0.7-2.6,0.8C16,65.3,8.6,65.2,1.6,66.8c-1.6,0.3-1.6,2.9,0,3.3
		c4,0.8,8.2,0.8,12.3,1c4,0.1,8.6,0.9,12.5,0.1c3.4-0.7,12.4-14.3,14.8-18.1c0.5,0.9,5,9.5,7.5,12c2.6,2.6,6.1,2.5,9.5,2.7
		c7.1,0.4,14.2,0.7,21.3,1.1c-1.7,1.4-9.8,8.1-10.6,10.5c-0.2,0.7,0.6,1.7,1.3,1.3c2.4-1,14.6-9.6,18.7-12
		C91.3,67.3,90.3,64.4,88.4,63.8z"/>
	<path class="st0" d="M88.5,20.7c-6-2-11.4-5.3-16.9-8.4c-3.8-2.1-7.2,3.9-3.3,5.7c2.3,1.1,4.6,2.3,6.9,3.5
		c-4.3,0.3-8.6,0.6-12.9,0.9c-3.1,0.2-6.2,0.2-8.3,2.8c-2.3,2.9-4.2,6.7-5.5,10.2c-0.4,1.2,1.2,1.9,2,1.2c2.6-2.1,4.3-4.8,6.5-7.2
		c2.1-2.2,6.8-1.5,9.7-1.6c4.3-0.2,8.6-0.5,12.9-0.7c-0.5,0.4-7,5.8-9.3,8.5c-1.1,1.2,0.2,2.8,1.7,2.2c3-1.3,17.8-11.8,18-12.2
		C91.1,24.1,90.8,21.5,88.5,20.7z"/>
</svg>
