<?xml version="1.0" encoding="utf-8"?>
<!-- Generator: Adobe Illustrator 25.0.1, SVG Export Plug-In . SVG Version: 6.00 Build 0)  -->
<svg version="1.1" id="Layer_1" xmlns="http://www.w3.org/2000/svg" xmlns:xlink="http://www.w3.org/1999/xlink" x="0px" y="0px"
	 viewBox="0 0 22 15" style="enable-background:new 0 0 22 15;" xml:space="preserve">
<style type="text/css">
	.st0{fill-rule:evenodd;clip-rule:evenodd;}
</style>
<path class="st0" d="M21.7,7.2l-3.6,3.1c-0.1,0.1-0.2,0.1-0.3,0l-3.6-3.1c-0.1-0.1,0-0.3,0.1-0.3h2.4C16.9,7,17,6.9,17,6.8V0.1
	C17,0.1,17.1,0,17.2,0h1.6C18.9,0,19,0.1,19,0.1v6.7C19,6.9,19.1,7,19.2,7h2.4C21.7,7,21.8,7.1,21.7,7.2z"/>
<path class="st0" d="M4.1,0h9.5C13.8,0,14,0.2,14,0.3V1c0,0.2-0.2,0.3-0.4,0.3H4.1C3.9,1.4,3.8,1.2,3.8,1V0.3C3.8,0.2,3.9,0,4.1,0z"
	/>
<path class="st0" d="M4.1,4.5h8c0.2,0,0.4,0.2,0.4,0.3v0.7c0,0.2-0.2,0.3-0.4,0.3h-8c-0.2,0-0.4-0.2-0.4-0.3V4.9
	C3.8,4.7,3.9,4.5,4.1,4.5z"/>
<path class="st0" d="M4.1,9H10c0.2,0,0.4,0.2,0.4,0.3V10c0,0.2-0.2,0.3-0.4,0.3H4.1c-0.2,0-0.4-0.2-0.4-0.3V9.4C3.8,9.2,3.9,9,4.1,9
	z"/>
</svg>
