<?xml version="1.0" encoding="utf-8"?>
<!-- Generator: Adobe Illustrator 25.0.1, SVG Export Plug-In . SVG Version: 6.00 Build 0)  -->
<svg version="1.1" id="Layer_1" xmlns="http://www.w3.org/2000/svg" xmlns:xlink="http://www.w3.org/1999/xlink" x="0px" y="0px"
	 viewBox="0 0 16 20" style="enable-background:new 0 0 16 20;" xml:space="preserve">
<path d="M14.3,2.7c-0.1-0.2-0.3-0.3-0.4-0.3H2.2C2,2.4,1.8,2.6,1.7,2.7c-0.1,0.2-0.1,0.4,0,0.5L5.9,9v4.1c0,0.3,0.2,0.5,0.5,0.5h3.2
	c0.3,0,0.5-0.2,0.5-0.5V9l4.2-5.7C14.4,3.1,14.4,2.9,14.3,2.7z M9.2,8.5C9.1,8.6,9.1,8.7,9.1,8.8v3.8H6.9V8.8c0-0.1,0-0.2-0.1-0.3
	L3.1,3.4h9.7L9.2,8.5z"/>
</svg>
