<?xml version="1.0" encoding="utf-8"?>
<!-- Generator: Adobe Illustrator 25.0.1, SVG Export Plug-In . SVG Version: 6.00 Build 0)  -->
<svg version="1.1" id="Layer_1" xmlns="http://www.w3.org/2000/svg" xmlns:xlink="http://www.w3.org/1999/xlink" x="0px" y="0px"
	 viewBox="0 0 100 125" style="enable-background:new 0 0 100 125;" xml:space="preserve">
<g>
	<path d="M86.1,45H63.9C59,45,55,41,55,36.1V13.9C55,9,59,5,63.9,5h22.2C91,5,95,9,95,13.9v22.2C95,41,91,45,86.1,45z M63.9,13.9
		v22.2h22.2l0-22.2H63.9z"/>
	<path d="M36.1,45H13.9C9,45,5,41,5,36.1V13.9C5,9,9,5,13.9,5h22.2c4.9,0,8.9,4,8.9,8.9v22.2C44.9,41,41,45,36.1,45z M13.9,13.9
		v22.2h22.2l0-22.2H13.9z"/>
	<path d="M86.1,95H63.9C59,95,55,91,55,86.1V63.9c0-4.9,4-8.9,8.9-8.9h22.2c4.9,0,8.9,4,8.9,8.9v22.2C95,91,91,95,86.1,95z
		 M63.9,63.9v22.2h22.2l0-22.2H63.9z"/>
	<path d="M36.1,95H13.9C9,95,5,91,5,86.1V63.9c0-4.9,4-8.9,8.9-8.9h22.2c4.9,0,8.9,4,8.9,8.9v22.2C44.9,91,41,95,36.1,95z
		 M13.9,63.9v22.2h22.2l0-22.2H13.9z"/>
</g>
</svg>
