<?xml version="1.0" encoding="utf-8"?>
<!-- Generator: Adobe Illustrator 25.0.1, SVG Export Plug-In . SVG Version: 6.00 Build 0)  -->
<svg version="1.1" id="Layer_1" xmlns="http://www.w3.org/2000/svg" xmlns:xlink="http://www.w3.org/1999/xlink" x="0px" y="0px"
	 viewBox="0 0 32 40" style="enable-background:new 0 0 32 40;" xml:space="preserve">
	<path class="st0" d="M21,25c0,0.6-0.4,1-1,1s-1-0.4-1-1v-2c0-1.7-1.3-3-3-3H9c-1.7,0-3,1.3-3,3v2c0,0.6-0.4,1-1,1s-1-0.4-1-1v-2
		c0-2.8,2.2-5,5-5h7c2.8,0,5,2.2,5,5V25z"/>
	<path class="st0" d="M12.5,16c-2.8,0-5-2.2-5-5s2.2-5,5-5s5,2.2,5,5S15.3,16,12.5,16z M12.5,14c1.7,0,3-1.3,3-3s-1.3-3-3-3
		s-3,1.3-3,3S10.8,14,12.5,14z"/>
	<path class="st0" d="M23,12c0-0.6,0.4-1,1-1s1,0.4,1,1v6c0,0.6-0.4,1-1,1s-1-0.4-1-1V12z"/>
	<path class="st0" d="M27,14c0.6,0,1,0.4,1,1s-0.4,1-1,1h-6c-0.6,0-1-0.4-1-1s0.4-1,1-1H27z"/>
</svg>
