<?xml version="1.0" encoding="utf-8"?>
<!-- Generator: Adobe Illustrator 25.0.1, SVG Export Plug-In . SVG Version: 6.00 Build 0)  -->
<svg version="1.1" id="Layer_1" xmlns="http://www.w3.org/2000/svg" xmlns:xlink="http://www.w3.org/1999/xlink" x="0px" y="0px"
	 viewBox="0 0 64 80" style="enable-background:new 0 0 64 80;" xml:space="preserve">
<g>
	<g>
		<path d="M26,10.5c-8.5,0-15.5,7-15.5,15.5s7,15.5,15.5,15.5s15.5-7,15.5-15.5S34.5,10.5,26,10.5z"/>
		<path d="M58.2,54.1L42.7,38.7C45.4,35.1,47,30.8,47,26c0-11.6-9.4-21-21-21S5,14.4,5,26s9.4,21,21,21c4.8,0,9.1-1.6,12.7-4.3
			l15.5,15.5c0.5,0.5,1.3,0.8,2,0.8c0.8,0,1.5-0.3,2-0.8C59.3,57,59.3,55.2,58.2,54.1z M26,43.5c-9.6,0-17.5-7.8-17.5-17.5
			S16.4,8.5,26,8.5S43.5,16.4,43.5,26S35.7,43.5,26,43.5z"/>
	</g>
</g>
</svg>
